<svg width="30" height="30" viewBox="0 0 30 30" fill="none" xmlns="http://www.w3.org/2000/svg">
<path d="M27.5797 3.20801H20.6724V1.59051C20.6724 1.0299 20.2181 0.575618 19.6575 0.575618C19.0969 0.575618 18.6426 1.0299 18.6426 1.59051V3.20766H11.8766V1.59051C11.8766 1.0299 11.4224 0.575618 10.8617 0.575618C10.3011 0.575618 9.84684 1.0299 9.84684 1.59051V3.20766H2.95154C1.9054 3.20766 1.05706 4.05599 1.05706 5.10213V27.0915C1.05706 28.1377 1.9054 28.986 2.95154 28.986H27.5797C28.6258 28.986 29.4741 28.1377 29.4741 27.0915V5.10213C29.4741 4.05633 28.6258 3.20801 27.5797 3.20801ZM27.4443 26.9562H3.08685V5.23745H9.84684V5.98839C9.84684 6.54901 10.3011 7.00329 10.8617 7.00329C11.4224 7.00329 11.8766 6.54901 11.8766 5.98839V5.23816H18.6426V5.9891C18.6426 6.54971 19.0969 7.00399 19.6575 7.00399C20.2181 7.00399 20.6724 6.54971 20.6724 5.9891V5.23816H27.4443V26.9562ZM21.4226 14.9131H23.1818C23.742 14.9131 24.1967 14.4585 24.1967 13.8982V12.1391C24.1967 11.5788 23.742 11.1242 23.1818 11.1242H21.4226C20.8624 11.1242 20.4077 11.5788 20.4077 12.1391V13.8982C20.4077 14.4585 20.8624 14.9131 21.4226 14.9131ZM21.4226 21.9494H23.1818C23.742 21.9494 24.1967 21.4951 24.1967 20.9345V19.1754C24.1967 18.6151 23.742 18.1605 23.1818 18.1605H21.4226C20.8624 18.1605 20.4077 18.6151 20.4077 19.1754V20.9345C20.4077 21.4955 20.8624 21.9494 21.4226 21.9494ZM16.1452 18.1605H14.386C13.8258 18.1605 13.3711 18.6151 13.3711 19.1754V20.9345C13.3711 21.4951 13.8258 21.9494 14.386 21.9494H16.1452C16.7054 21.9494 17.1601 21.4951 17.1601 20.9345V19.1754C17.1601 18.6155 16.7055 18.1605 16.1452 18.1605ZM16.1452 11.1242H14.386C13.8258 11.1242 13.3711 11.5788 13.3711 12.1391V13.8982C13.3711 14.4585 13.8258 14.9131 14.386 14.9131H16.1452C16.7054 14.9131 17.1601 14.4585 17.1601 13.8982V12.1391C17.1601 11.5784 16.7054 11.1242 16.1452 11.1242ZM9.10857 11.1242H7.34942C6.78916 11.1242 6.33452 11.5788 6.33452 12.1391V13.8982C6.33452 14.4585 6.78916 14.9131 7.34942 14.9131H9.10857C9.66883 14.9131 10.1235 14.4585 10.1235 13.8982V12.1391C10.1235 11.5784 9.66879 11.1242 9.10857 11.1242ZM9.10857 18.1605H7.34942C6.78916 18.1605 6.33452 18.6151 6.33452 19.1754V20.9345C6.33452 21.4951 6.78919 21.9494 7.34942 21.9494H9.10857C9.66879 21.9494 10.1235 21.4951 10.1235 20.9345V19.1754C10.1235 18.6155 9.66886 18.1605 9.10857 18.1605Z" fill="#999999" stroke="#999999" stroke-width="0.270639"/>
</svg>
