<svg width="26" height="18" viewBox="0 0 26 18" fill="none" xmlns="http://www.w3.org/2000/svg">
<path fill-rule="evenodd" clip-rule="evenodd" d="M5.08496 1.18457H21.5336C23.6133 1.18457 25.3158 2.76911 25.3158 4.70649V13.4156C25.3158 15.353 23.6142 16.9375 21.5336 16.9375H5.08496C3.00519 16.9375 1.30273 15.353 1.30273 13.4156V4.70649C1.30273 2.76911 3.00428 1.18457 5.08496 1.18457Z" stroke="#2E3192" stroke-width="0.787646" stroke-miterlimit="2.61"/>
<path fill-rule="evenodd" clip-rule="evenodd" d="M12.0073 4.73283C12.5678 4.72195 12.5442 3.64895 12.0073 3.56551L8.82548 3.54918C2.71406 3.62809 0.701407 13.7276 9.18466 14.7226C9.80687 14.6981 10.381 14.4886 10.7683 14.0786L14.9061 5.88745C15.0902 5.48746 15.2834 5.45934 15.4893 5.87929L19.7304 14.6138C20.2837 14.8523 20.798 14.8578 21.2651 14.582L16.0398 3.89475C15.5981 3.39408 15.141 3.29794 14.6557 3.92287L10.1651 12.6946C9.94927 13.1045 9.65177 13.3385 9.28624 13.4265C3.93217 13.6315 2.51724 5.42669 9.02231 4.6775L12.0064 4.73283H12.0073Z" fill="#2E3192"/>
<path fill-rule="evenodd" clip-rule="evenodd" d="M14.9121 6.11011L15.0727 5.94141L19.4227 14.7911C19.4807 14.8782 19.5424 14.928 19.6113 14.9235L19.5714 15.1403C19.4354 15.1158 19.3184 15.0269 19.2186 14.8791L14.9121 6.11011Z" fill="#2E3192"/>
<path fill-rule="evenodd" clip-rule="evenodd" d="M13.7353 9.97298C17.1683 9.33717 20.3356 7.91951 23.7768 6.61523C21.3288 8.07098 18.6767 9.36438 15.8024 10.4791L16.3892 12.2596L15.3815 12.8355L13.7344 9.97298H13.7353Z" fill="#008B46" stroke="#008B46" stroke-width="0.0453504" stroke-miterlimit="2.61"/>
</svg>
