<svg width="26" height="25" viewBox="0 0 26 25" fill="none" xmlns="http://www.w3.org/2000/svg">
<path d="M7.54523 0C3.78023 0 0.727051 3.05318 0.727051 6.81818V17.7273C0.727051 21.4923 3.78023 24.5455 7.54523 24.5455H18.4543C22.2193 24.5455 25.2725 21.4923 25.2725 17.7273V6.81818C25.2725 3.05318 22.2193 0 18.4543 0H7.54523ZM21.1816 2.72727C21.9343 2.72727 22.5452 3.33818 22.5452 4.09091C22.5452 4.84364 21.9343 5.45455 21.1816 5.45455C20.4289 5.45455 19.818 4.84364 19.818 4.09091C19.818 3.33818 20.4289 2.72727 21.1816 2.72727ZM12.9998 5.45455C16.7648 5.45455 19.818 8.50773 19.818 12.2727C19.818 16.0377 16.7648 19.0909 12.9998 19.0909C9.23478 19.0909 6.1816 16.0377 6.1816 12.2727C6.1816 8.50773 9.23478 5.45455 12.9998 5.45455ZM12.9998 8.18182C11.9148 8.18182 10.8743 8.61282 10.1071 9.38002C9.33987 10.1472 8.90887 11.1878 8.90887 12.2727C8.90887 13.3577 9.33987 14.3982 10.1071 15.1654C10.8743 15.9326 11.9148 16.3636 12.9998 16.3636C14.0848 16.3636 15.1253 15.9326 15.8925 15.1654C16.6597 14.3982 17.0907 13.3577 17.0907 12.2727C17.0907 11.1878 16.6597 10.1472 15.8925 9.38002C15.1253 8.61282 14.0848 8.18182 12.9998 8.18182Z" fill="#66A6AB"/>
</svg>
