<svg width="30" height="30" viewBox="0 0 30 30" fill="none" xmlns="http://www.w3.org/2000/svg">
<path d="M21.4132 18.4485H20.0956L19.6286 17.9982C21.2631 16.0969 22.2471 13.6285 22.2471 10.9434C22.2471 4.95589 17.3937 0.102539 11.4062 0.102539C5.41878 0.102539 0.56543 4.95589 0.56543 10.9434C0.56543 16.9308 5.41878 21.7842 11.4062 21.7842C14.0914 21.7842 16.5598 20.8002 18.4611 19.1657L18.9114 19.6327V20.9503L27.2505 29.2727L29.7356 26.7876L21.4132 18.4485ZM11.4062 18.4485C7.25338 18.4485 3.90107 15.0962 3.90107 10.9434C3.90107 6.79049 7.25338 3.43817 11.4062 3.43817C15.5591 3.43817 18.9114 6.79049 18.9114 10.9434C18.9114 15.0962 15.5591 18.4485 11.4062 18.4485Z" fill="#006066"/>
</svg>
