<svg width="25" height="25" viewBox="0 0 25 25" fill="none" xmlns="http://www.w3.org/2000/svg">
<path d="M22.2728 0H3.18186C1.67504 0 0.45459 1.22045 0.45459 2.72727V21.8182C0.45459 23.325 1.67504 24.5455 3.18186 24.5455H22.2728C23.7796 24.5455 25 23.325 25 21.8182V2.72727C25 1.22045 23.7796 0 22.2728 0ZM8.63641 19.0909H5.19595V9.54545H8.63641V19.0909ZM6.8555 7.79591C5.80413 7.79591 5.10186 7.095 5.10186 6.15955C5.10186 5.22409 5.80277 4.52318 6.97141 4.52318C8.02277 4.52318 8.72504 5.22409 8.72504 6.15955C8.72504 7.095 8.02414 7.79591 6.8555 7.79591ZM20.9091 19.0909H17.5791V13.8736C17.5791 12.4309 16.6914 12.0982 16.3587 12.0982C16.026 12.0982 14.916 12.3205 14.916 13.8736C14.916 14.0959 14.916 19.0909 14.916 19.0909H11.4755V9.54545H14.916V10.8777C15.3591 10.1005 16.2469 9.54545 17.9119 9.54545C19.5769 9.54545 20.9091 10.8777 20.9091 13.8736V19.0909Z" fill="#66A6AB"/>
</svg>
