<svg width="114" height="86" viewBox="0 0 114 86" fill="none" xmlns="http://www.w3.org/2000/svg">
<g clip-path="url(#clip0_2_12)">
<path d="M75.5199 0V12.6314H65.1406V25.2582H75.5199V40.918V47.9011V69.9991H101.173V60.7231V40.918V38.0893V0H75.5199Z" fill="#FFCA2C"/>
<path d="M12.6855 35.3785V47.0337H9.70703V29.6758H12.6855L15.6322 34.7837V29.6758H18.6107V47.0337H15.6322V40.4864L12.6855 35.3785Z" fill="#FFCA2C"/>
<path d="M20.0957 29.6758H23.0697C23.0697 30.0209 23.0969 40.3593 23.0969 40.995C23.0969 42.0029 23.1241 44.1233 24.5998 44.1233C26.0754 44.1233 25.9301 42.0529 25.9301 40.995L25.9074 29.6758H28.8814V40.995C28.8814 44.1914 28.6362 47.0473 24.5998 47.0473C20.5634 47.0473 20.0957 44.1187 20.0957 40.945V29.6758Z" fill="#FFCA2C"/>
<path d="M33.3356 29.6758L35.2244 37.6124L37.1087 29.6758H40.0781V47.0337H37.1087V39.1243L36.1643 43.5557H34.28L33.3356 39.1243V47.0337H30.3662V29.6758H33.3356Z" fill="#FFCA2C"/>
<path d="M47.8468 41.8219C47.8468 39.7152 46.4575 38.9706 45.3224 38.9706H44.5778V44.301C46.4575 44.3055 47.8468 44.0785 47.8468 41.8219ZM44.9682 36.0012C46.7526 36.0012 47.47 35.2293 47.47 34.067C47.47 32.6776 46.2305 32.4052 44.9682 32.4052H44.5732V36.0012H44.9682ZM41.5993 29.6764H44.9728C48.2464 29.6764 50.453 30.5709 50.453 34.067C50.453 35.6561 49.4405 37.2906 47.9967 37.2906V37.3678C49.9309 37.445 50.9434 39.352 50.9434 41.881C50.9434 45.427 49.1318 47.0343 46.2078 47.0343H41.5947V29.6719H41.5993V29.6764Z" fill="#FFCA2C"/>
<path d="M52.4277 29.6758H59.8649L60.4324 32.6497H55.4017V36.9676H59.1975V39.9416H55.4017V44.0552H60.4324L59.8649 47.0337H52.4277V29.6758Z" fill="#FFCA2C"/>
<path d="M65.7407 36.6187C67.1527 36.6187 67.802 35.6016 67.802 34.4393C67.802 33.0499 67.0301 32.4052 65.7407 32.4052H64.9007V36.6232H65.7407V36.6187ZM61.9268 29.6764H66.0176C68.5239 29.6764 70.776 30.9386 70.776 34.4347C70.776 36.6141 69.8316 38.0035 68.5966 38.7209L71.1483 47.0252H67.9291L66.0222 39.3384H64.9052V47.0252H61.9313V29.6719L61.9268 29.6764Z" fill="#FFCA2C"/>
<path d="M5.80261 62.1401V57.4363C5.80261 56.3829 5.9252 54.3261 4.48136 54.3261C3.03752 54.3261 2.98757 56.4328 2.98757 57.4363V62.1401H5.80261ZM0 68.701V57.4817C0 54.3216 0.440418 51.334 4.4859 51.334C8.53139 51.334 8.74478 54.2489 8.74478 57.4317V68.6964H5.78445V64.9506H2.96941V68.6964H0V68.701Z" fill="#07636A"/>
<path d="M16.0408 62.2669C16.0408 60.2646 16.6674 54.1305 14.9784 54.1305C13.2894 54.1305 13.3166 58.9115 13.3166 60.1193C13.3166 62.1488 13.4846 65.5496 15.6322 65.5496C16.4994 65.5496 17.7299 65.2318 18.529 64.6052L18.6016 67.8652C17.7344 68.3964 16.6447 68.6825 15.6322 68.6825C10.7558 68.6825 10.2246 63.7607 10.2246 60.1874C10.2246 57.0954 10.2473 51.3291 14.9557 51.3291C20.1454 51.3291 19.1828 58.7163 19.1828 61.3452L16.0454 62.2669H16.0408Z" fill="#07636A"/>
<path d="M26.548 62.1257V57.4174C26.548 56.364 26.6706 54.3027 25.2222 54.3027C23.7738 54.3027 23.7284 56.4094 23.7284 57.4174V62.1257H26.548ZM20.7363 68.7002V57.4673C20.7363 54.3027 21.1767 51.3105 25.2222 51.3105C29.2677 51.3105 29.4902 54.23 29.4902 57.4174V68.7002H26.5253V64.9453H23.7057V68.7002H20.7363Z" fill="#07636A"/>
<path d="M33.9486 54.3482V65.9761H34.4707C35.8601 65.9761 36.9498 64.1918 36.9498 60.001C36.9498 56.3097 35.8601 54.3482 34.4707 54.3482H33.9486ZM30.9746 51.3516H34.7885C38.7568 51.3516 40.069 56.3097 40.069 59.8784C40.069 64.1918 38.7568 68.7049 34.7885 68.7049H30.9746V51.3516Z" fill="#07636A"/>
<path d="M41.5586 51.3516H48.9957L49.5633 54.3255H44.5325V58.6343H48.3238V61.6128H44.5325V65.7264H49.5633L48.9957 68.7004H41.5586V51.3516Z" fill="#07636A"/>
<path d="M54.0218 51.3516L55.9106 59.2791L57.7903 51.3516H60.7688V68.7004H57.7903V60.791L56.8505 65.2315H54.9662L54.0218 60.791V68.7004H51.0479V51.3516H54.0218Z" fill="#07636A"/>
<path d="M65.2226 51.3516V57.1042C65.2226 58.8886 65.9173 59.5833 66.7073 60.5504C67.4974 59.5833 68.192 58.8886 68.192 57.1042V51.3516H71.166V57.6718C71.166 60.6684 68.192 63.0975 68.192 63.0975H68.1648V68.7004H65.1909V63.0748C64.8912 62.8251 62.2441 60.5231 62.2441 57.6718V51.3516H65.2226Z" fill="#07636A"/>
<path d="M60.7773 73.1182H0.00878906V85.9175H60.7773V73.1182Z" fill="#07636A"/>
<path d="M75.5157 73.0911V73.1047V60.2781H88.3378V47.4561H101.169V73.1047H101.173V73.0911H114V85.9177H101.173V85.8995H101.169H75.5157V85.9177H65.0547V73.0911H75.5157Z" fill="#07636A"/>
</g>
<defs>
<clipPath id="clip0_2_12">
<rect width="114" height="85.9177" fill="white"/>
</clipPath>
</defs>
</svg>
