<svg width="26" height="25" viewBox="0 0 26 25" fill="none" xmlns="http://www.w3.org/2000/svg">
<path d="M0 13.1143C0 13.1143 5.36323 11.9891 7.77143 9.71442C10.3699 7.25999 11.6774 1.43689 11.6774 1.43689C11.6774 1.43689 12.426 7.23077 14.8347 9.71426C17.3288 12.2859 23.3547 13.1143 23.3547 13.1143C14.6506 14.3908 12.3353 17.1182 11.6774 24.7916C11.1633 16.6197 8.19254 14.433 0 13.1143Z" fill="#FFCA2C"/>
<path d="M15.2998 5.09961C15.2998 5.09961 17.6422 4.60821 18.6939 3.61475C19.8288 2.5428 20.3998 -0.000390509 20.3998 -0.000390509C20.3998 -0.000390509 20.7268 2.53004 21.7787 3.61469C22.868 4.73781 25.4998 5.09961 25.4998 5.09961C21.6984 5.65713 20.6871 6.84832 20.3998 10.1996C20.1753 6.63057 18.8778 5.67555 15.2998 5.09961Z" fill="#FFCA2C" fill-opacity="0.5"/>
<path d="M1.7002 4.97852C1.7002 4.97852 2.87137 4.73282 3.39725 4.23609C3.96468 3.70011 4.2502 2.42852 4.2502 2.42852C4.2502 2.42852 4.41368 3.69373 4.93966 4.23605C5.48431 4.79762 6.8002 4.97852 6.8002 4.97852C4.89947 5.25727 4.39387 5.85287 4.2502 7.52852C4.13795 5.744 3.48921 5.26649 1.7002 4.97852Z" fill="#FBC926" fill-opacity="0.5"/>
</svg>
