<svg width="34" height="34" viewBox="0 0 34 34" fill="none" xmlns="http://www.w3.org/2000/svg">
<g filter="url(#filter0_d_436_115)">
<path fill-rule="evenodd" clip-rule="evenodd" d="M3.35745 31.109C3.263 31.109 3.17142 31.0718 3.10344 31.0031C3.014 30.9122 2.97894 30.7798 3.01257 30.6575L4.90086 23.7626C3.73025 21.6833 3.11274 19.322 3.11417 16.9249C3.11703 9.23867 9.37153 2.98633 17.0571 2.98633C20.785 2.98776 24.2876 4.43958 26.92 7.07418C29.5525 9.70949 31.0014 13.2113 31 16.935C30.9971 24.6205 24.7419 30.8736 17.0571 30.8736C14.7752 30.8729 12.5177 30.3097 10.5142 29.2443L3.44833 31.0968C3.41828 31.1054 3.38822 31.109 3.35745 31.109Z" fill="white"/>
</g>
<path fill-rule="evenodd" clip-rule="evenodd" d="M25.0435 8.94776C22.9112 6.81403 20.077 5.63841 17.0603 5.6377C10.8323 5.6377 5.76702 10.7008 5.76416 16.9245C5.76345 19.0576 6.3602 21.134 7.49075 22.9322L7.75979 23.3593L6.61851 27.5245L10.8924 26.4039L11.3053 26.6487C13.0383 27.6776 15.026 28.2214 17.0524 28.2221H17.0567C23.2805 28.2221 28.3457 23.1583 28.3479 16.9338C28.3486 13.9179 27.1758 11.0815 25.0435 8.94776Z" fill="#40C351"/>
<path fill-rule="evenodd" clip-rule="evenodd" d="M13.6624 11.2479C13.4084 10.6827 13.1408 10.6712 12.8983 10.6612C12.7 10.6526 12.4739 10.6533 12.2478 10.6533C12.0217 10.6533 11.6539 10.7385 11.3427 11.0784C11.0314 11.4182 10.1542 12.239 10.1542 13.909C10.1542 15.5791 11.3706 17.1933 11.5402 17.4194C11.7097 17.6455 13.8886 21.1824 17.3389 22.5434C20.206 23.6739 20.7899 23.4492 21.4124 23.3927C22.0349 23.3362 23.4209 22.572 23.7035 21.7792C23.9862 20.9864 23.9862 20.3073 23.9017 20.1657C23.8166 20.024 23.5905 19.9395 23.2513 19.7692C22.9122 19.599 21.2428 18.7782 20.9316 18.6652C20.6203 18.5521 20.3942 18.4956 20.1674 18.8355C19.9413 19.1746 19.2908 19.9395 19.0926 20.1657C18.8944 20.3925 18.6962 20.4211 18.3571 20.2508C18.0179 20.0805 16.9246 19.7227 15.6273 18.5664C14.6184 17.667 13.9372 16.5558 13.739 16.2159C13.5408 15.8767 13.7175 15.6928 13.8878 15.5233C14.0402 15.3709 14.227 15.1269 14.3973 14.9287C14.5669 14.7305 14.6234 14.5888 14.7365 14.3627C14.8495 14.1358 14.793 13.9376 14.7078 13.7681C14.6241 13.5978 13.9644 11.9191 13.6624 11.2479Z" fill="white"/>
<defs>
<filter id="filter0_d_436_115" x="0.349936" y="0.336264" width="33.3001" height="33.4232" filterUnits="userSpaceOnUse" color-interpolation-filters="sRGB">
<feFlood flood-opacity="0" result="BackgroundImageFix"/>
<feColorMatrix in="SourceAlpha" type="matrix" values="0 0 0 0 0 0 0 0 0 0 0 0 0 0 0 0 0 0 127 0" result="hardAlpha"/>
<feOffset/>
<feGaussianBlur stdDeviation="1.32503"/>
<feComposite in2="hardAlpha" operator="out"/>
<feColorMatrix type="matrix" values="0 0 0 0 0 0 0 0 0 0 0 0 0 0 0 0 0 0 0.25 0"/>
<feBlend mode="normal" in2="BackgroundImageFix" result="effect1_dropShadow_436_115"/>
<feBlend mode="normal" in="SourceGraphic" in2="effect1_dropShadow_436_115" result="shape"/>
</filter>
</defs>
</svg>
